<svg height="214.84225" width="600" xmlns="http://www.w3.org/2000/svg"><path d="m79.3387 236.494-.4347-.1998 1.8004-.2336c.0323.0558.0626.1047.0992.1547zm4.8328 0 .4341-.2118-1.7911-.2267c-.0155.0609-.0631.1098-.0948.1598zm-.2618.0331-.545.1926-.7752-.2491-.0675-.0227c.0261-.0217.0468-.0428.0675-.0717.0317-.0279.0586-.0655.0889-.094zm1.4393-.5381-.4981.2442-1.9899-.2442c.0169-.05.033-.1006.0475-.1503zm.1778-.0731.6504-.4372h-3.5191c0 .1561-.0218.2887-.0686.4055-.1361.3704-.4754.5482-.8165.542-.3349-.0097-.6759-.193-.8268-.5316-.0537-.1234-.0851-.2536-.0851-.4159h-3.5285l.6446.4372 2.6961-.1485c.051.2043.1468.3828.2729.5148.215.2384.5233.372.8268.372.2987.0062.6015-.1106.8165-.3652.1151-.1336.2039-.3049.256-.5109zm-2.9373 1.1321.0686.133-.0686.0344-.1833.0875-.2081-.4392c-.1316.0499-.2783.0785-.4251.083-.1578.0072-.3193-.0162-.4602-.0651l-.1785.4213c-.0576.0052-.1378 0-.1881-.0385-.0265-.0173-.0537-.0452-.0631-.0834l.0631-.1117.1509-.2886c-.0472-.0324-.0889-.0555-.1309-.0993l.1267-.1608c.215.1398.4493.2153.6801.2153.2301.0072.4606-.071.6749-.2315l.1416.0437.0586.0231c-.0221.0165-.0372.0317-.0586.0496-.0414.0441-.0785.0889-.1464.1275zm0-2.269c.1357.1723.236.3838.2884.6271h-.225c-.0166-.0724-.0365-.1434-.0634-.2095-.1512-.4224-.4609-.7218-.8165-.9708-.0468-.0286-.0892-.061-.1364-.0882.0472.0162.0896.032.1364.0496.3245.1374.6126.3269.8165.5918zm-.6084 1.5638c.0596-.0093.1475-.0452.217-.0989l-.3569-.7493.3714-.1874-.3135-.2884-.1261.0613-.5402.2588.1585.3776.2553-.1217zm-.9729.1051c-.0207-.0155-.042-.0369-.062-.0552-.0424-.0382-.0789-.0768-.1061-.1171l-1.2285.247.5226.1871zm-.3349-.4589c-.0206-.05-.0358-.1006-.0523-.1503l-2.4605.1503.4975.2549z" fill="#2a2175" fill-rule="evenodd" transform="matrix(67.838003 0 0 67.838003 -5246.089151 -15883.42721)"/></svg>