<svg viewBox="0 0 1130.19 462.82" xmlns="http://www.w3.org/2000/svg"><path d="m664 4.64a228.55 228.55 0 0 0 -41.94 3.86c105.22 19.66 184.87 104 184.87 214.91 0 79-64 151-143 151a143 143 0 0 1 -41.87-279.75 143.13 143.13 0 0 0 -41.9-6.24c-79 0-143 72-143 151 0 110.93 79.65 195.25 184.88 214.9a227.68 227.68 0 0 0 41.96 3.86c97.11 0 179.95-61.05 212.27-146.86v-159.82c-32.37-85.81-115.21-146.86-212.27-146.86z" fill="#37322d" opacity=".25"/><path d="m622.06 8.5a228.58 228.58 0 0 0 -41.9-3.86c-108.8 0-199.7 76.62-221.7 178.84a7.52 7.52 0 0 1 -7.37 5.93h-110.35a7.55 7.55 0 0 0 -7.56 7.56v68.6a7.56 7.56 0 0 0 7.56 7.56h96.94a7.56 7.56 0 0 1 7.56 7.56v34a15.14 15.14 0 0 1 -3.66 9.88 142.93 142.93 0 1 1 -46.44-222.09 7.56 7.56 0 0 0 9.86-2.87l35.18-59.19a7.57 7.57 0 0 0 -3-10.58 225.72 225.72 0 0 0 -104-25.2c-125.25 0-226.78 101.53-226.78 226.77s101.53 226.77 226.78 226.77a226.11 226.11 0 0 0 167.87-74.34 7.59 7.59 0 0 1 11.24 0 227.06 227.06 0 0 0 209.77 70.47c-105.23-19.65-184.88-104-184.88-214.9 0-79 64-151 143-151a143 143 0 0 1 41.9 279.73 142.73 142.73 0 0 0 41.92 6.25c79 0 143-72 143-151-.07-110.91-79.72-195.23-184.94-214.89zm494.17 359.5h-148.73a7.56 7.56 0 0 1 -7.56-7.56v-341.74a7.55 7.55 0 0 0 -7.56-7.56h-68.6a7.56 7.56 0 0 0 -7.56 7.56v417.86a15.12 15.12 0 0 0 15.12 15.12h224.89a7.57 7.57 0 0 0 7.56-7.56v-68.61a7.57 7.57 0 0 0 -7.56-7.51z" fill="#ff7020"/></svg>