<svg height="65.345253" viewBox="0 0 192.96249 65.345254" width="192.96249" xmlns="http://www.w3.org/2000/svg"><path d="m236.211 513.816h177.758c-16.875 28.118-26.574 61.036-26.574 96.211 0 144.368 117.031 261.387 261.406 261.387l894.899-4.129-46.19-161.035h-176.55l-101.41-353.477h-189.98l101.37 353.477h-178.37c16.875-28.125 26.571-61.035 26.571-96.223 0-144.343-117.032-261.375-261.395-261.375l-4.699.028-713.047 4.093 147.551 514.524h190.023zm338.488 96.204c0 59.96 48.614 108.562 108.574 108.562 59.969 0 108.575-48.602 108.575-108.562 0-59.961-48.606-108.567-108.575-108.567-59.96 0-108.574 48.606-108.574 108.567zm83.426-18.68 60.508 121.355c7.461-3.64 12.48-11.593 12.48-20.449 0-4.199-1.121-8.137-3.133-11.492l-52.082-86.684 17.59 2.715c.907.141 1.844.207 2.793.207 9.832 0 17.801-7.98 17.801-17.812h49.016l-4.407 5.547h-8.964l-1.973 2.714h26.055c2.812-4.687 7.812-7.921 13.593-8.261l-.839-2.715h-110.196l45.578-34.973c5.059-3.875 8.231-10.058 8.231-16.922 0-5.91-2.352-11.355-6.223-15.234l-68.316 67.129h-75.645l-.84 2.715z" fill="#1a3171" fill-rule="evenodd" transform="matrix(.125 0 0 -.125 0 108.92675)"/></svg>