<svg height="17.600523mm" viewBox="0 0 106.20828 17.600523" width="106.20828mm" xmlns="http://www.w3.org/2000/svg"><path d="m13.551253-42.805987c-3.6169821 0-5.3649971 1.383802-5.5105441 3.981303h3.5685731c.04874-.679791.436838-1.18944 1.941971-1.18944 1.33525 0 1.96645.436911 1.96645 1.092406 0 .582572-.36406.801009-1.2624.89808l-2.330439.242584c-3.1558841.340061-4.5883141 1.650793-4.5883141 4.030042 0 2.209107 1.35954 3.908233 4.2484381 3.908233 1.966265 0 3.131665-.631053 4.151155-1.893637v1.529649h3.35014v-8.03553c0-3.37414-1.96641-4.563838-5.53503-4.563838m2.03941 7.841238c0 1.335102-1.26266 2.33051-3.204548 2.33051-.946785 0-1.50521-.437095-1.50521-1.262473 0-.6312.388435-1.165292 1.626465-1.335101l2.112293-.291323c.36406-.04837.75242-.121108.971-.194216zm-13.8373621-2.913229c3.107339.412763 4.660951 1.383876 4.660951 3.932786 0 2.573353-1.82068 4.102744-5.68065504 4.102744-4.19984696 0-5.68068896-1.675015-5.75342196-4.127113h3.616946c.09711.898301.72838196 1.335359 2.13647596 1.335359 1.43228304 0 2.01485804-.340061 2.01485804-1.019593 0-.6312-.485394-.92256-1.747864-1.092443l-1.28666104-.170215c-2.69457196-.364062-4.24822096-1.407729-4.24822096-3.83553 0-2.330472 1.723601-4.054078 5.34088196-4.054078 3.34988104 0 5.14637304 1.335175 5.31618304 3.981303h-3.568505c-.121478-.703901-.509796-1.140996-1.74760204-1.140996-1.213956 0-1.675273.412762-1.675273.946892 0 .533981.291323.825267 1.335175.971039l1.28673204.169847m-12.5397019-4.92801c3.1803289 0 4.8068629 1.407913 4.8068629 5.437843v7.161524h-3.665866v-6.991641c0-1.626423-.7039739-2.354656-2.2333689-2.354656-1.383802 0-2.209061.728233-2.209061 2.354656v6.991641h-3.665654v-12.235233h3.447137v1.408135c.509876-.946892 1.553572-1.77227 3.51995-1.77227m-14.011121 0c-3.617204 0-5.365105 1.383802-5.510729 3.981303h3.568576c.04837-.679791.437023-1.189587 1.942153-1.189587 1.335177 0 1.966301.437058 1.966301 1.092369 0 .582757-.364061.801193-1.262398.898264l-2.330437.242584c-3.156.339692-4.588283 1.650793-4.588283 4.030042 0 2.209107 1.359435 3.908233 4.248259 3.908233 1.966486 0 3.131703-.631053 4.151333-1.893637v1.529649h3.350104v-8.03553c.000037-3.374325-1.966264-4.563838-5.534879-4.563838m2.039151 7.841128c0 1.335101-1.262472 2.330621-3.204442 2.330621-.946891 0-1.505207-.437096-1.505207-1.262474 0-.6312.388469-1.165292 1.626537-1.335101l2.112073-.291323c.364061-.04874.752528-.121108.971039-.194215zm-14.080132-7.841128c3.107372 0 4.733906 1.407913 4.733906 5.437842v7.161525h-3.665868v-6.991642c0-1.626422-.703977-2.354655-2.23333-2.354655-1.383802 0-2.209106.728233-2.209106 2.354655v6.991642h-3.665686v-16.969138h3.689906v5.92342c.631237-.898264 1.626573-1.553649 3.350178-1.553649m-10.907739.364061h2.791753v2.986005h-2.791753v4.758163c0 1.310917.679754 1.650831 1.747938 1.650831.436911 0 1.043815-.07274 1.043815-.07274v2.937378s-.849598.194215-1.74779.194215c-2.937377 0-4.709572-1.335138-4.709572-4.296774v-5.170851h-1.844974v-2.986005h1.844974v-3.568541h3.665609zm-12.817547-.461169c0-2.961599 1.869379-4.539728 4.80672-4.539728.946891 0 1.553758.145846 1.553758.145846v2.961563s-.509797-.04837-.946891-.04837c-1.140997 0-1.747975.38843-1.747975 1.456578v.48539h2.694866v2.986005h-2.694866v9.2493h-3.665612v-9.2493h-1.844935v-2.986005h1.844935v-.461169m-6.481844.461169h3.665611v12.235305h-3.4471v-1.408098c-.509871.946892-1.553612 1.77216-3.471544 1.77216-3.131482 0-4.758017-1.407951-4.758017-5.437771v-7.161596h3.665611v6.991528c0 1.626572.704086 2.354732 2.184886 2.354732 1.335175 0 2.160516-.72816 2.160516-2.354732v-6.991528zm-16.143688 8.812242h7.307149v3.423063h-11.239825v-16.993396h3.93275v13.570333z" fill="#05164d" stroke-width="3.692307" transform="translate(87.121997 47.443119)"/></svg>